<svg data-v-423bf9ae="" xmlns="http://www.w3.org/2000/svg" viewBox="0 0 294.24490064027555 60" class="font"><!----><!----><!----><g data-v-423bf9ae="" id="97c52436-ef94-4ff1-92e8-e205d20d3e2a" fill="white" transform="matrix(6.1224488604322,0,0,6.1224488604322,-8.938778876066692,-21.428570534675544)"><path d="M2.23 13.30C2.23 13.30 2.23 13.30 2.24 13.30C2.24 13.30 2.24 13.30 2.27 13.30L6.80 13.30C7.21 13.30 7.57 12.95 7.57 12.53C7.57 12.10 7.21 11.75 6.80 11.75L3.01 11.75L3.01 4.27C3.01 3.85 2.66 3.50 2.23 3.50C1.79 3.50 1.46 3.85 1.46 4.27L1.46 12.53C1.46 12.95 1.79 13.30 2.23 13.30ZM14.91 10.39L14.91 7.04C14.91 6.65 14.55 6.30 14.15 6.30C13.73 6.30 13.43 6.65 13.43 7.04L13.43 7.04L13.43 10.39C13.41 11.19 12.77 11.82 11.96 11.82C11.16 11.82 10.53 11.19 10.53 10.39L10.53 7.04C10.53 6.65 10.21 6.30 9.79 6.30C9.38 6.30 9.04 6.65 9.04 7.04L9.04 10.39C9.04 11.98 10.36 13.30 11.96 13.30C13.57 13.30 14.91 11.98 14.91 10.39ZM25.07 7.80C25.84 7.80 26.49 8.44 26.49 9.24L26.49 12.56C26.49 12.96 26.84 13.30 27.24 13.30C27.65 13.30 27.99 12.96 27.99 12.56L27.99 9.24C27.99 7.62 26.68 6.30 25.07 6.30C24.19 6.30 23.39 6.66 22.88 7.27C22.34 6.66 21.56 6.30 20.68 6.30C20.15 6.30 19.63 6.45 19.18 6.72C19.07 6.45 18.80 6.30 18.51 6.30C18.10 6.30 17.77 6.62 17.77 7.06L17.77 9.23C17.77 9.23 17.77 9.23 17.77 9.24L17.77 12.56C17.77 12.92 18.03 13.20 18.37 13.29C18.41 13.29 18.45 13.30 18.51 13.30C18.80 13.30 19.08 13.10 19.21 12.85C19.21 12.85 19.21 12.85 19.21 12.85C19.21 12.82 19.21 12.80 19.21 12.78C19.24 12.75 19.24 12.73 19.25 12.70C19.25 12.70 19.25 12.67 19.25 12.66C19.25 12.63 19.26 12.59 19.26 12.56L19.26 12.56L19.26 9.24C19.26 8.44 19.91 7.80 20.68 7.80C21.46 7.80 22.11 8.43 22.12 9.20C22.12 9.21 22.12 9.23 22.12 9.24L22.12 12.56C22.12 12.96 22.48 13.30 22.88 13.30C22.88 13.30 22.88 13.30 22.88 13.30C22.88 13.30 22.88 13.30 22.88 13.30C23.28 13.30 23.62 12.96 23.62 12.56L23.62 9.24C23.62 9.23 23.62 9.21 23.62 9.20C23.65 8.43 24.28 7.80 25.07 7.80ZM31.85 6.31C31.43 6.31 31.09 6.64 31.09 7.08L31.09 12.54C31.09 12.96 31.43 13.30 31.85 13.30C32.28 13.30 32.61 12.96 32.61 12.54L32.61 7.08C32.61 6.64 32.28 6.31 31.85 6.31ZM32.61 4.26C32.61 3.84 32.28 3.50 31.85 3.50C31.43 3.50 31.09 3.84 31.09 4.26L31.09 4.55C31.09 4.97 31.43 5.32 31.85 5.32C32.28 5.32 32.61 4.97 32.61 4.55L32.61 4.26ZM37.93 6.30C37.38 6.30 36.86 6.47 36.44 6.73C36.32 6.47 36.05 6.30 35.76 6.30C35.34 6.30 35.01 6.64 35.01 7.04L35.01 9.21C35.01 9.21 35.01 9.21 35.01 9.21L35.01 12.56C35.01 12.96 35.34 13.30 35.76 13.30C36.12 13.30 36.43 13.03 36.50 12.70C36.53 12.64 36.53 12.60 36.53 12.56L36.53 12.56L36.53 9.21C36.53 8.43 37.14 7.80 37.93 7.80C38.72 7.80 39.38 8.43 39.38 9.21L39.38 12.56C39.38 12.96 39.73 13.30 40.12 13.30C40.53 13.30 40.85 12.96 40.85 12.56L40.85 9.21C40.85 7.63 39.55 6.30 37.93 6.30ZM49.52 7.06C49.52 6.64 49.18 6.30 48.78 6.30C48.41 6.30 48.13 6.57 48.05 6.92C47.52 6.54 46.89 6.30 46.19 6.30C45.23 6.30 44.41 6.71 43.81 7.35C43.20 7.98 42.85 8.85 42.85 9.81C42.85 10.77 43.20 11.63 43.81 12.28C44.41 12.91 45.23 13.30 46.19 13.30C46.19 13.30 46.19 13.30 46.19 13.30C46.89 13.30 47.52 13.08 48.05 12.70C48.13 13.03 48.41 13.30 48.78 13.30C49.18 13.30 49.52 12.96 49.52 12.56L49.52 9.81C49.52 9.81 49.52 9.81 49.52 9.81C49.52 9.81 49.52 9.81 49.52 9.81L49.52 7.06ZM47.49 11.26C47.15 11.61 46.68 11.80 46.19 11.80C45.68 11.80 45.21 11.61 44.88 11.26C44.55 10.89 44.35 10.39 44.35 9.81C44.35 9.23 44.55 8.72 44.88 8.37C45.21 7.99 45.68 7.80 46.19 7.80C46.68 7.80 47.15 7.99 47.49 8.37C47.82 8.72 48.03 9.23 48.03 9.81C48.03 10.39 47.82 10.89 47.49 11.26Z"></path></g><!----><!----></svg>