<svg xmlns="http://www.w3.org/2000/svg" xmlns:xlink="http://www.w3.org/1999/xlink" width="500" zoomAndPan="magnify" viewBox="0 0 375 129.750003" height="173" preserveAspectRatio="xMidYMid meet" version="1.0"><defs><g/><clipPath id="b8008a0c6f"><path d="M 76.859375 26.386719 L 169.679688 26.386719 L 169.679688 103.257812 L 76.859375 103.257812 Z M 76.859375 26.386719 " clip-rule="nonzero"/></clipPath><clipPath id="6e0d0b903c"><path d="M 146.855469 27.285156 L 123.445312 50.269531 L 100.03125 27.285156 C 99.429688 26.671875 98.695312 26.375 97.835938 26.386719 L 78.4375 26.386719 C 78.003906 26.386719 77.628906 26.542969 77.320312 26.851562 C 77.011719 27.160156 76.859375 27.53125 76.859375 27.96875 L 76.859375 56.644531 C 76.835938 57.539062 77.152344 58.292969 77.800781 58.910156 L 105.625 86.238281 L 119.761719 72.359375 L 112.753906 74.769531 L 90.734375 53.125 L 90.734375 36.605469 L 123.445312 68.75 L 155.46875 37.265625 L 155.46875 53.8125 L 114.050781 94.496094 L 122.335938 102.664062 C 122.644531 102.960938 123.015625 103.109375 123.445312 103.109375 C 123.871094 103.109375 124.242188 102.960938 124.554688 102.664062 L 169.085938 58.910156 C 169.726562 58.289062 170.042969 57.535156 170.03125 56.644531 L 170.03125 27.96875 C 170.03125 27.53125 169.875 27.160156 169.566406 26.851562 C 169.257812 26.542969 168.886719 26.386719 168.449219 26.386719 L 149.050781 26.386719 C 148.191406 26.375 147.457031 26.671875 146.855469 27.285156 " clip-rule="evenodd"/></clipPath></defs><g clip-path="url(#b8008a0c6f)"><g clip-path="url(#6e0d0b903c)"><path fill="#000000" d="M 76.859375 26.386719 L 76.859375 103.109375 L 169.679688 103.109375 L 169.679688 26.386719 Z M 76.859375 26.386719 " fill-opacity="1" fill-rule="nonzero"/></g></g><g fill="#000000" fill-opacity="1"><g transform="translate(176.535026, 55.651808)"><g><path d="M 7.234375 -4.09375 L 14.203125 -4.09375 L 14.203125 0 L 1.921875 0 L 1.921875 -21.8125 L 7.234375 -21.8125 Z M 7.234375 -4.09375 "/></g></g></g><g fill="#000000" fill-opacity="1"><g transform="translate(191.348899, 55.651808)"><g><path d="M 7.140625 -21.8125 L 7.140625 -8.765625 C 7.140625 -7.453125 7.457031 -6.441406 8.09375 -5.734375 C 8.738281 -5.035156 9.6875 -4.6875 10.9375 -4.6875 C 12.175781 -4.6875 13.125 -5.035156 13.78125 -5.734375 C 14.445312 -6.441406 14.78125 -7.453125 14.78125 -8.765625 L 14.78125 -21.8125 L 20.09375 -21.8125 L 20.09375 -8.796875 C 20.09375 -6.847656 19.675781 -5.195312 18.84375 -3.84375 C 18.019531 -2.5 16.910156 -1.484375 15.515625 -0.796875 C 14.117188 -0.117188 12.5625 0.21875 10.84375 0.21875 C 9.125 0.21875 7.582031 -0.113281 6.21875 -0.78125 C 4.863281 -1.457031 3.789062 -2.472656 3 -3.828125 C 2.21875 -5.191406 1.828125 -6.847656 1.828125 -8.796875 L 1.828125 -21.8125 Z M 7.140625 -21.8125 "/></g></g></g><g fill="#000000" fill-opacity="1"><g transform="translate(213.243619, 55.651808)"><g><path d="M 26.625 -21.8125 L 26.625 0 L 21.3125 0 L 21.3125 -13.078125 L 16.4375 0 L 12.140625 0 L 7.234375 -13.109375 L 7.234375 0 L 1.921875 0 L 1.921875 -21.8125 L 8.203125 -21.8125 L 14.3125 -6.703125 L 20.375 -21.8125 Z M 26.625 -21.8125 "/></g></g></g><g fill="#000000" fill-opacity="1"><g transform="translate(241.753339, 55.651808)"><g><path d="M 7.234375 -21.8125 L 7.234375 0 L 1.921875 0 L 1.921875 -21.8125 Z M 7.234375 -21.8125 "/></g></g></g><g fill="#000000" fill-opacity="1"><g transform="translate(250.914959, 55.651808)"><g><path d="M 21.4375 0 L 16.125 0 L 7.234375 -13.453125 L 7.234375 0 L 1.921875 0 L 1.921875 -21.8125 L 7.234375 -21.8125 L 16.125 -8.296875 L 16.125 -21.8125 L 21.4375 -21.8125 Z M 21.4375 0 "/></g></g></g><g fill="#000000" fill-opacity="1"><g transform="translate(274.269328, 55.651808)"><g><path d="M 15.5 -3.859375 L 7.359375 -3.859375 L 6.0625 0 L 0.5 0 L 8.390625 -21.8125 L 14.53125 -21.8125 L 22.421875 0 L 16.8125 0 Z M 14.140625 -7.953125 L 11.4375 -15.9375 L 8.765625 -7.953125 Z M 14.140625 -7.953125 "/></g></g></g></svg>