<svg xmlns="http://www.w3.org/2000/svg" xmlns:xlink="http://www.w3.org/1999/xlink" width="500" zoomAndPan="magnify" viewBox="0 0 375 374.999991" height="500" preserveAspectRatio="xMidYMid meet" version="1.0"><defs><g/><clipPath id="4e4c02c79f"><path d="M 0 122.492188 L 157.886719 122.492188 L 157.886719 252.226562 L 0 252.226562 Z M 0 122.492188 " clip-rule="nonzero"/></clipPath><clipPath id="1aeac78fd9"><path d="M 118.613281 124.011719 L 78.945312 162.960938 L 39.273438 124.011719 C 38.25 122.976562 37.007812 122.46875 35.550781 122.492188 L 2.679688 122.492188 C 1.941406 122.492188 1.308594 122.753906 0.785156 123.277344 C 0.261719 123.800781 0 124.429688 0 125.171875 L 0 173.761719 C -0.0351562 175.277344 0.496094 176.558594 1.601562 177.601562 L 48.75 223.910156 L 72.703125 200.394531 L 60.828125 204.472656 L 23.515625 167.800781 L 23.515625 139.808594 L 78.941406 194.277344 L 133.210938 140.925781 L 133.210938 168.960938 L 63.027344 237.90625 L 77.0625 251.742188 C 77.589844 252.246094 78.214844 252.5 78.941406 252.5 C 79.671875 252.5 80.296875 252.246094 80.824219 251.742188 L 156.285156 177.601562 C 157.375 176.550781 157.90625 175.269531 157.886719 173.761719 L 157.886719 125.171875 C 157.886719 124.429688 157.625 123.800781 157.101562 123.277344 C 156.578125 122.753906 155.945312 122.492188 155.207031 122.492188 L 122.335938 122.492188 C 120.878906 122.46875 119.636719 122.976562 118.613281 124.011719 " clip-rule="evenodd"/></clipPath></defs><g clip-path="url(#4e4c02c79f)"><g clip-path="url(#1aeac78fd9)"><path fill="#000000" d="M 0 122.492188 L 0 252.226562 L 157.886719 252.226562 L 157.886719 122.492188 Z M 0 122.492188 " fill-opacity="1" fill-rule="nonzero"/></g></g><g fill="#000000" fill-opacity="1"><g transform="translate(168.91826, 172.081342)"><g><path d="M 12.265625 -6.953125 L 24.046875 -6.953125 L 24.046875 0 L 3.265625 0 L 3.265625 -36.9375 L 12.265625 -36.9375 Z M 12.265625 -6.953125 "/></g></g></g><g fill="#000000" fill-opacity="1"><g transform="translate(194.022555, 172.081342)"><g><path d="M 12.109375 -36.9375 L 12.109375 -14.84375 C 12.109375 -12.632812 12.648438 -10.929688 13.734375 -9.734375 C 14.816406 -8.546875 16.414062 -7.953125 18.53125 -7.953125 C 20.632812 -7.953125 22.242188 -8.546875 23.359375 -9.734375 C 24.484375 -10.929688 25.046875 -12.632812 25.046875 -14.84375 L 25.046875 -36.9375 L 34.046875 -36.9375 L 34.046875 -14.890625 C 34.046875 -11.597656 33.34375 -8.8125 31.9375 -6.53125 C 30.539062 -4.25 28.65625 -2.523438 26.28125 -1.359375 C 23.914062 -0.203125 21.273438 0.375 18.359375 0.375 C 15.453125 0.375 12.847656 -0.191406 10.546875 -1.328125 C 8.253906 -2.472656 6.441406 -4.195312 5.109375 -6.5 C 3.773438 -8.800781 3.109375 -11.597656 3.109375 -14.890625 L 3.109375 -36.9375 Z M 12.109375 -36.9375 "/></g></g></g><g fill="#000000" fill-opacity="1"><g transform="translate(231.126389, 172.081342)"><g><path d="M 45.09375 -36.9375 L 45.09375 0 L 36.09375 0 L 36.09375 -22.15625 L 27.84375 0 L 20.578125 0 L 12.265625 -22.203125 L 12.265625 0 L 3.265625 0 L 3.265625 -36.9375 L 13.890625 -36.9375 L 24.265625 -11.359375 L 34.515625 -36.9375 Z M 45.09375 -36.9375 "/></g></g></g><g fill="#000000" fill-opacity="1"><g transform="translate(279.440319, 172.081342)"><g><path d="M 12.265625 -36.9375 L 12.265625 0 L 3.265625 0 L 3.265625 -36.9375 Z M 12.265625 -36.9375 "/></g></g></g><g fill="#000000" fill-opacity="1"><g transform="translate(294.966036, 172.081342)"><g><path d="M 36.3125 0 L 27.3125 0 L 12.265625 -22.78125 L 12.265625 0 L 3.265625 0 L 3.265625 -36.9375 L 12.265625 -36.9375 L 27.3125 -14.046875 L 27.3125 -36.9375 L 36.3125 -36.9375 Z M 36.3125 0 "/></g></g></g><g fill="#000000" fill-opacity="1"><g transform="translate(334.543462, 172.081342)"><g><path d="M 26.265625 -6.53125 L 12.46875 -6.53125 L 10.265625 0 L 0.84375 0 L 14.203125 -36.9375 L 24.625 -36.9375 L 38 0 L 28.46875 0 Z M 23.9375 -13.46875 L 19.359375 -27 L 14.84375 -13.46875 Z M 23.9375 -13.46875 "/></g></g></g></svg>