<svg xmlns="http://www.w3.org/2000/svg" xmlns:xlink="http://www.w3.org/1999/xlink" width="500" zoomAndPan="magnify" viewBox="0 0 375 374.999991" height="500" preserveAspectRatio="xMidYMid meet" version="1.0"><defs><g/></defs><g fill="#b377c6" fill-opacity="1"><g transform="translate(37.500002, 213.70318)"><g><path d="M 17.84375 -10.109375 L 35.015625 -10.109375 L 35.015625 0 L 4.75 0 L 4.75 -53.78125 L 17.84375 -53.78125 Z M 17.84375 -10.109375 "/></g></g></g><g fill="#b377c6" fill-opacity="1"><g transform="translate(74.036608, 213.70318)"><g><path d="M 17.625 -53.78125 L 17.625 -21.609375 C 17.625 -18.390625 18.414062 -15.910156 20 -14.171875 C 21.582031 -12.429688 23.90625 -11.5625 26.96875 -11.5625 C 30.03125 -11.5625 32.378906 -12.429688 34.015625 -14.171875 C 35.648438 -15.910156 36.46875 -18.390625 36.46875 -21.609375 L 36.46875 -53.78125 L 49.5625 -53.78125 L 49.5625 -21.6875 C 49.5625 -16.882812 48.539062 -12.820312 46.5 -9.5 C 44.457031 -6.175781 41.710938 -3.671875 38.265625 -1.984375 C 34.816406 -0.304688 30.972656 0.53125 26.734375 0.53125 C 22.492188 0.53125 18.703125 -0.296875 15.359375 -1.953125 C 12.015625 -3.609375 9.367188 -6.109375 7.421875 -9.453125 C 5.484375 -12.804688 4.515625 -16.882812 4.515625 -21.6875 L 4.515625 -53.78125 Z M 17.625 -53.78125 "/></g></g></g><g fill="#b377c6" fill-opacity="1"><g transform="translate(128.037261, 213.70318)"><g><path d="M 65.65625 -53.78125 L 65.65625 0 L 52.546875 0 L 52.546875 -32.25 L 40.53125 0 L 29.953125 0 L 17.84375 -32.328125 L 17.84375 0 L 4.75 0 L 4.75 -53.78125 L 20.21875 -53.78125 L 35.3125 -16.546875 L 50.25 -53.78125 Z M 65.65625 -53.78125 "/></g></g></g><g fill="#b377c6" fill-opacity="1"><g transform="translate(198.353004, 213.70318)"><g><path d="M 17.84375 -53.78125 L 17.84375 0 L 4.75 0 L 4.75 -53.78125 Z M 17.84375 -53.78125 "/></g></g></g><g fill="#b377c6" fill-opacity="1"><g transform="translate(220.949023, 213.70318)"><g><path d="M 52.859375 0 L 39.765625 0 L 17.84375 -33.171875 L 17.84375 0 L 4.75 0 L 4.75 -53.78125 L 17.84375 -53.78125 L 39.765625 -20.453125 L 39.765625 -53.78125 L 52.859375 -53.78125 Z M 52.859375 0 "/></g></g></g><g fill="#b377c6" fill-opacity="1"><g transform="translate(278.549719, 213.70318)"><g><path d="M 38.234375 -9.5 L 18.15625 -9.5 L 14.9375 0 L 1.21875 0 L 20.6875 -53.78125 L 35.859375 -53.78125 L 55.3125 0 L 41.453125 0 Z M 34.859375 -19.609375 L 28.1875 -39.296875 L 21.609375 -19.609375 Z M 34.859375 -19.609375 "/></g></g></g></svg>