<svg xmlns="http://www.w3.org/2000/svg" xmlns:xlink="http://www.w3.org/1999/xlink" width="500" zoomAndPan="magnify" viewBox="0 0 375 129.750003" height="173" preserveAspectRatio="xMidYMid meet" version="1.0"><defs><g/><clipPath id="5bf09724a1"><path d="M 77.671875 26.667969 L 170.152344 26.667969 L 170.152344 102.96875 L 77.671875 102.96875 Z M 77.671875 26.667969 " clip-rule="nonzero"/></clipPath><clipPath id="d92d2d2df0"><path d="M 147.148438 27.558594 L 123.910156 50.375 L 100.671875 27.558594 C 100.074219 26.949219 99.347656 26.65625 98.496094 26.667969 L 79.238281 26.667969 C 78.804688 26.667969 78.4375 26.820312 78.128906 27.128906 C 77.824219 27.433594 77.671875 27.804688 77.671875 28.238281 L 77.671875 56.699219 C 77.648438 57.585938 77.960938 58.335938 78.605469 58.945312 L 106.226562 86.074219 L 120.257812 72.300781 L 113.300781 74.6875 L 91.445312 53.207031 L 91.445312 36.808594 L 123.910156 68.714844 L 155.699219 37.464844 L 155.699219 53.886719 L 114.589844 94.273438 L 122.808594 102.378906 C 123.117188 102.671875 123.484375 102.820312 123.910156 102.820312 C 124.335938 102.820312 124.703125 102.671875 125.011719 102.378906 L 169.214844 58.945312 C 169.851562 58.332031 170.164062 57.582031 170.152344 56.699219 L 170.152344 28.238281 C 170.152344 27.804688 170 27.433594 169.691406 27.128906 C 169.386719 26.820312 169.015625 26.667969 168.582031 26.667969 L 149.328125 26.667969 C 148.472656 26.65625 147.75 26.949219 147.148438 27.558594 " clip-rule="evenodd"/></clipPath></defs><g clip-path="url(#5bf09724a1)"><g clip-path="url(#d92d2d2df0)"><path fill="#000000" d="M 77.671875 26.667969 L 77.671875 102.820312 L 170.152344 102.820312 L 170.152344 26.667969 Z M 77.671875 26.667969 " fill-opacity="1" fill-rule="nonzero"/></g></g><g fill="#000000" fill-opacity="1"><g transform="translate(176.615583, 75.386381)"><g><path d="M 7.1875 -4.0625 L 14.09375 -4.0625 L 14.09375 0 L 1.90625 0 L 1.90625 -21.640625 L 7.1875 -21.640625 Z M 7.1875 -4.0625 "/></g></g></g><g fill="#000000" fill-opacity="1"><g transform="translate(191.320641, 75.386381)"><g><path d="M 7.09375 -21.640625 L 7.09375 -8.6875 C 7.09375 -7.394531 7.410156 -6.398438 8.046875 -5.703125 C 8.679688 -5.003906 9.613281 -4.65625 10.84375 -4.65625 C 12.082031 -4.65625 13.03125 -5.003906 13.6875 -5.703125 C 14.34375 -6.398438 14.671875 -7.394531 14.671875 -8.6875 L 14.671875 -21.640625 L 19.953125 -21.640625 L 19.953125 -8.71875 C 19.953125 -6.789062 19.539062 -5.15625 18.71875 -3.8125 C 17.894531 -2.476562 16.785156 -1.472656 15.390625 -0.796875 C 14.003906 -0.117188 12.460938 0.21875 10.765625 0.21875 C 9.054688 0.21875 7.523438 -0.113281 6.171875 -0.78125 C 4.828125 -1.445312 3.765625 -2.453125 2.984375 -3.796875 C 2.203125 -5.148438 1.8125 -6.789062 1.8125 -8.71875 L 1.8125 -21.640625 Z M 7.09375 -21.640625 "/></g></g></g><g fill="#000000" fill-opacity="1"><g transform="translate(213.054535, 75.386381)"><g><path d="M 26.421875 -21.640625 L 26.421875 0 L 21.140625 0 L 21.140625 -12.984375 L 16.3125 0 L 12.046875 0 L 7.1875 -13.015625 L 7.1875 0 L 1.90625 0 L 1.90625 -21.640625 L 8.140625 -21.640625 L 14.21875 -6.65625 L 20.21875 -21.640625 Z M 26.421875 -21.640625 "/></g></g></g><g fill="#000000" fill-opacity="1"><g transform="translate(241.354839, 75.386381)"><g><path d="M 7.1875 -21.640625 L 7.1875 0 L 1.90625 0 L 1.90625 -21.640625 Z M 7.1875 -21.640625 "/></g></g></g><g fill="#000000" fill-opacity="1"><g transform="translate(250.449162, 75.386381)"><g><path d="M 21.265625 0 L 16 0 L 7.1875 -13.34375 L 7.1875 0 L 1.90625 0 L 1.90625 -21.640625 L 7.1875 -21.640625 L 16 -8.234375 L 16 -21.640625 L 21.265625 -21.640625 Z M 21.265625 0 "/></g></g></g><g fill="#000000" fill-opacity="1"><g transform="translate(273.631984, 75.386381)"><g><path d="M 15.390625 -3.828125 L 7.3125 -3.828125 L 6.015625 0 L 0.5 0 L 8.328125 -21.640625 L 14.421875 -21.640625 L 22.265625 0 L 16.671875 0 Z M 14.03125 -7.890625 L 11.34375 -15.8125 L 8.6875 -7.890625 Z M 14.03125 -7.890625 "/></g></g></g></svg>