<svg xmlns="http://www.w3.org/2000/svg" xmlns:xlink="http://www.w3.org/1999/xlink" width="400" zoomAndPan="magnify" viewBox="0 0 300 83.999999" height="112" preserveAspectRatio="xMidYMid meet" version="1.0"><defs><g/><clipPath id="f936912a09"><path d="M 15.613281 22.878906 L 62.042969 22.878906 L 62.042969 61.125 L 15.613281 61.125 Z M 15.613281 22.878906 " clip-rule="nonzero"/></clipPath><clipPath id="899ccb5ac8"><path d="M 50.492188 23.324219 L 38.828125 34.78125 L 27.160156 23.324219 C 26.859375 23.019531 26.496094 22.871094 26.066406 22.878906 L 16.398438 22.878906 C 15.875 22.878906 15.613281 23.140625 15.613281 23.664062 L 15.613281 37.953125 C 15.601562 38.402344 15.757812 38.777344 16.082031 39.082031 L 29.949219 52.703125 L 36.992188 45.785156 L 33.5 46.988281 L 22.527344 36.203125 L 22.527344 27.96875 L 38.828125 43.988281 L 54.785156 28.300781 L 54.785156 36.542969 L 34.144531 56.816406 L 38.273438 60.886719 C 38.640625 61.238281 39.011719 61.238281 39.378906 60.886719 L 61.570312 39.082031 C 61.890625 38.773438 62.046875 38.398438 62.042969 37.953125 L 62.042969 23.664062 C 62.042969 23.140625 61.777344 22.878906 61.253906 22.878906 L 51.585938 22.878906 C 51.15625 22.871094 50.792969 23.019531 50.492188 23.324219 " clip-rule="evenodd"/></clipPath></defs><g fill="#000000" fill-opacity="1"><g transform="translate(71.687686, 61.208023)"><g><path d="M 13.078125 -7.40625 L 25.65625 -7.40625 L 25.65625 0 L 3.484375 0 L 3.484375 -39.421875 L 13.078125 -39.421875 Z M 13.078125 -7.40625 "/></g></g></g><g fill="#000000" fill-opacity="1"><g transform="translate(98.47052, 61.208023)"><g><path d="M 12.921875 -39.421875 L 12.921875 -15.84375 C 12.921875 -13.476562 13.5 -11.660156 14.65625 -10.390625 C 15.8125 -9.117188 17.515625 -8.484375 19.765625 -8.484375 C 22.015625 -8.484375 23.738281 -9.117188 24.9375 -10.390625 C 26.132812 -11.660156 26.734375 -13.476562 26.734375 -15.84375 L 26.734375 -39.421875 L 36.328125 -39.421875 L 36.328125 -15.890625 C 36.328125 -12.367188 35.578125 -9.390625 34.078125 -6.953125 C 32.585938 -4.523438 30.578125 -2.691406 28.046875 -1.453125 C 25.523438 -0.222656 22.707031 0.390625 19.59375 0.390625 C 16.488281 0.390625 13.707031 -0.210938 11.25 -1.421875 C 8.800781 -2.640625 6.863281 -4.472656 5.4375 -6.921875 C 4.019531 -9.378906 3.3125 -12.367188 3.3125 -15.890625 L 3.3125 -39.421875 Z M 12.921875 -39.421875 "/></g></g></g><g fill="#000000" fill-opacity="1"><g transform="translate(138.055218, 61.208023)"><g><path d="M 48.125 -39.421875 L 48.125 0 L 38.515625 0 L 38.515625 -23.640625 L 29.703125 0 L 21.953125 0 L 13.078125 -23.703125 L 13.078125 0 L 3.484375 0 L 3.484375 -39.421875 L 14.828125 -39.421875 L 25.890625 -12.125 L 36.84375 -39.421875 Z M 48.125 -39.421875 "/></g></g></g><g fill="#000000" fill-opacity="1"><g transform="translate(189.599548, 61.208023)"><g><path d="M 13.078125 -39.421875 L 13.078125 0 L 3.484375 0 L 3.484375 -39.421875 Z M 13.078125 -39.421875 "/></g></g></g><g fill="#000000" fill-opacity="1"><g transform="translate(206.163358, 61.208023)"><g><path d="M 38.75 0 L 29.140625 0 L 13.078125 -24.3125 L 13.078125 0 L 3.484375 0 L 3.484375 -39.421875 L 13.078125 -39.421875 L 29.140625 -15 L 29.140625 -39.421875 L 38.75 -39.421875 Z M 38.75 0 "/></g></g></g><g fill="#000000" fill-opacity="1"><g transform="translate(248.387037, 61.208023)"><g><path d="M 28.015625 -6.96875 L 13.3125 -6.96875 L 10.953125 0 L 0.90625 0 L 15.15625 -39.421875 L 26.28125 -39.421875 L 40.546875 0 L 30.375 0 Z M 25.546875 -14.375 L 20.671875 -28.8125 L 15.84375 -14.375 Z M 25.546875 -14.375 "/></g></g></g><g clip-path="url(#f936912a09)"><g clip-path="url(#899ccb5ac8)"><path fill="#000000" d="M 15.613281 22.878906 L 15.613281 61.125 L 62.042969 61.125 L 62.042969 22.878906 Z M 15.613281 22.878906 " fill-opacity="1" fill-rule="nonzero"/></g></g></svg>