<svg xmlns="http://www.w3.org/2000/svg" xmlns:xlink="http://www.w3.org/1999/xlink" width="500" zoomAndPan="magnify" viewBox="0 0 375 374.999991" height="500" preserveAspectRatio="xMidYMid meet" version="1.0"><defs><g/><clipPath id="a45e26b583"><path d="M 93.945312 49.183594 L 280.695312 49.183594 L 280.695312 235.933594 L 93.945312 235.933594 Z M 93.945312 49.183594 " clip-rule="nonzero"/></clipPath><clipPath id="07626a4437"><path d="M 93.945312 108.554688 C 93.945312 106.125 94.941406 103.878906 96.5 102.320312 C 98.121094 100.699219 100.304688 99.699219 102.738281 99.699219 C 105.167969 99.699219 107.414062 100.699219 108.972656 102.320312 C 109.597656 102.941406 110.160156 103.628906 110.535156 104.441406 L 130.429688 104.441406 L 130.429688 99.324219 C 130.429688 95.519531 131.925781 92.152344 134.421875 89.660156 C 136.914062 87.164062 140.28125 85.667969 144.085938 85.667969 L 149.199219 85.667969 L 149.199219 65.773438 C 148.390625 65.398438 147.703125 64.835938 147.082031 64.214844 C 145.460938 62.652344 144.460938 60.410156 144.460938 57.976562 C 144.460938 55.542969 145.460938 53.359375 147.082031 51.738281 C 148.640625 50.179688 150.886719 49.183594 153.316406 49.183594 C 155.75 49.183594 157.933594 50.179688 159.492188 51.738281 C 161.113281 53.359375 162.109375 55.542969 162.109375 57.976562 C 162.109375 60.410156 161.113281 62.652344 159.492188 64.214844 C 158.867188 64.835938 158.183594 65.398438 157.371094 65.773438 L 157.371094 85.667969 L 183.316406 85.667969 L 183.316406 65.773438 C 182.566406 65.398438 181.820312 64.835938 181.195312 64.214844 C 179.636719 62.652344 178.636719 60.410156 178.636719 57.976562 C 178.636719 55.542969 179.636719 53.359375 181.195312 51.738281 C 182.816406 50.179688 185 49.183594 187.433594 49.183594 C 189.863281 49.183594 192.046875 50.179688 193.667969 51.738281 C 195.289062 53.359375 196.226562 55.542969 196.226562 57.976562 C 196.226562 60.410156 195.289062 62.652344 193.667969 64.214844 C 193.046875 64.835938 192.359375 65.398438 191.546875 65.773438 L 191.546875 85.667969 L 217.492188 85.667969 L 217.492188 65.773438 C 216.683594 65.398438 215.996094 64.835938 215.371094 64.214844 C 213.75 62.652344 212.816406 60.410156 212.816406 57.976562 C 212.816406 55.542969 213.75 53.359375 215.371094 51.738281 C 216.933594 50.179688 219.175781 49.183594 221.609375 49.183594 C 224.042969 49.183594 226.222656 50.179688 227.847656 51.738281 C 229.40625 53.359375 230.402344 55.542969 230.402344 57.976562 C 230.402344 60.410156 229.40625 62.652344 227.847656 64.214844 C 227.222656 64.835938 226.472656 65.398438 225.664062 65.773438 L 225.664062 85.667969 L 230.839844 85.667969 C 234.582031 85.667969 238.011719 87.164062 240.445312 89.660156 C 242.9375 92.152344 244.5 95.519531 244.5 99.324219 L 244.5 104.441406 L 264.332031 104.441406 C 264.765625 103.628906 265.265625 102.941406 265.890625 102.320312 C 267.511719 100.699219 269.695312 99.699219 272.125 99.699219 C 274.558594 99.699219 276.742188 100.699219 278.363281 102.320312 C 279.984375 103.878906 280.921875 106.125 280.921875 108.554688 C 280.921875 110.988281 279.984375 113.171875 278.363281 114.730469 C 276.742188 116.351562 274.558594 117.351562 272.125 117.351562 C 269.695312 117.351562 267.511719 116.351562 265.890625 114.730469 C 265.265625 114.105469 264.765625 113.421875 264.332031 112.609375 L 244.5 112.609375 L 244.5 138.554688 L 264.332031 138.554688 C 264.765625 137.804688 265.265625 137.058594 265.890625 136.433594 C 267.511719 134.875 269.695312 133.878906 272.125 133.878906 C 274.558594 133.878906 276.742188 134.875 278.363281 136.433594 C 279.984375 138.054688 280.921875 140.238281 280.921875 142.671875 C 280.921875 145.101562 279.984375 147.285156 278.363281 148.90625 C 276.742188 150.527344 274.558594 151.464844 272.125 151.464844 C 269.695312 151.464844 267.511719 150.527344 265.890625 148.90625 C 265.265625 148.285156 264.765625 147.597656 264.332031 146.789062 L 244.5 146.789062 L 244.5 172.730469 L 264.332031 172.730469 C 264.765625 171.921875 265.265625 171.234375 265.890625 170.613281 C 267.511719 168.988281 269.695312 168.054688 272.125 168.054688 C 274.558594 168.054688 276.742188 168.988281 278.363281 170.613281 C 279.984375 172.171875 280.921875 174.414062 280.921875 176.847656 C 280.921875 179.28125 279.984375 181.464844 278.363281 183.085938 C 276.742188 184.644531 274.558594 185.640625 272.125 185.640625 C 269.695312 185.640625 267.511719 184.644531 265.890625 183.085938 C 265.265625 182.460938 264.765625 181.710938 264.332031 180.902344 L 244.5 180.902344 L 244.5 186.078125 C 244.5 189.820312 242.9375 193.25 240.445312 195.683594 C 238.011719 198.175781 234.582031 199.738281 230.839844 199.738281 L 225.664062 199.738281 L 225.664062 219.570312 C 226.472656 220.007812 227.222656 220.503906 227.847656 221.128906 C 229.40625 222.75 230.402344 224.933594 230.402344 227.367188 C 230.402344 229.796875 229.40625 231.980469 227.847656 233.601562 C 226.222656 235.222656 224.042969 236.160156 221.609375 236.160156 C 219.175781 236.160156 216.933594 235.222656 215.371094 233.601562 C 213.75 231.980469 212.816406 229.796875 212.816406 227.367188 C 212.816406 224.933594 213.75 222.75 215.371094 221.128906 C 215.996094 220.503906 216.683594 220.007812 217.492188 219.570312 L 217.492188 199.738281 L 191.546875 199.738281 L 191.546875 219.570312 C 192.359375 220.007812 193.046875 220.503906 193.667969 221.128906 C 195.289062 222.75 196.226562 224.933594 196.226562 227.367188 C 196.226562 229.796875 195.289062 231.980469 193.667969 233.601562 C 192.046875 235.222656 189.863281 236.160156 187.433594 236.160156 C 185 236.160156 182.816406 235.222656 181.195312 233.601562 C 179.636719 231.980469 178.636719 229.796875 178.636719 227.367188 C 178.636719 224.933594 179.636719 222.75 181.195312 221.128906 C 181.820312 220.503906 182.566406 220.007812 183.316406 219.570312 L 183.316406 199.738281 L 157.371094 199.738281 L 157.371094 219.570312 C 158.183594 220.007812 158.867188 220.503906 159.492188 221.128906 C 161.113281 222.75 162.109375 224.933594 162.109375 227.367188 C 162.109375 229.796875 161.113281 231.980469 159.492188 233.601562 C 157.933594 235.222656 155.75 236.160156 153.316406 236.160156 C 150.886719 236.160156 148.640625 235.222656 147.082031 233.601562 C 145.460938 231.980469 144.460938 229.796875 144.460938 227.367188 C 144.460938 224.933594 145.460938 222.75 147.082031 221.128906 C 147.703125 220.503906 148.390625 220.007812 149.199219 219.570312 L 149.199219 199.738281 L 144.085938 199.738281 C 140.28125 199.738281 136.914062 198.175781 134.421875 195.683594 C 131.925781 193.25 130.429688 189.820312 130.429688 186.078125 L 130.429688 180.902344 L 110.535156 180.902344 C 110.160156 181.710938 109.597656 182.460938 108.972656 183.085938 C 107.414062 184.644531 105.167969 185.640625 102.738281 185.640625 C 100.304688 185.640625 98.121094 184.644531 96.5 183.085938 C 94.941406 181.464844 93.945312 179.28125 93.945312 176.847656 C 93.945312 174.414062 94.941406 172.171875 96.5 170.613281 C 98.121094 168.988281 100.304688 168.054688 102.738281 168.054688 C 105.167969 168.054688 107.414062 168.988281 108.972656 170.613281 C 109.597656 171.234375 110.160156 171.921875 110.535156 172.730469 L 130.429688 172.730469 L 130.429688 146.785156 L 110.535156 146.785156 C 110.160156 147.597656 109.597656 148.285156 108.972656 148.90625 C 107.414062 150.527344 105.167969 151.464844 102.738281 151.464844 C 100.304688 151.464844 98.121094 150.527344 96.5 148.90625 C 94.941406 147.285156 93.945312 145.101562 93.945312 142.671875 C 93.945312 140.238281 94.941406 138.054688 96.5 136.433594 C 98.121094 134.875 100.304688 133.878906 102.738281 133.878906 C 105.167969 133.878906 107.414062 134.875 108.972656 136.433594 C 109.597656 137.058594 110.160156 137.804688 110.535156 138.554688 L 130.429688 138.554688 L 130.429688 112.609375 L 110.535156 112.609375 C 110.160156 113.421875 109.597656 114.105469 108.972656 114.730469 C 107.414062 116.351562 105.167969 117.351562 102.738281 117.351562 C 100.304688 117.351562 98.121094 116.351562 96.5 114.730469 C 94.941406 113.171875 93.945312 110.988281 93.945312 108.554688 Z M 159.492188 104.441406 L 215.433594 104.441406 C 218.242188 104.441406 220.796875 105.5625 222.667969 107.433594 C 224.539062 109.304688 225.664062 111.863281 225.664062 114.730469 L 225.664062 170.671875 C 225.664062 173.480469 224.539062 176.039062 222.667969 177.910156 C 220.796875 179.78125 218.242188 180.902344 215.433594 180.902344 L 159.492188 180.902344 C 156.621094 180.902344 154.066406 179.78125 152.195312 177.910156 C 150.324219 176.039062 149.199219 173.480469 149.199219 170.671875 L 149.199219 114.730469 C 149.199219 111.863281 150.324219 109.304688 152.195312 107.433594 C 154.066406 105.5625 156.621094 104.441406 159.492188 104.441406 Z M 215.433594 112.609375 L 159.492188 112.609375 C 158.867188 112.609375 158.367188 112.859375 157.996094 113.234375 C 157.621094 113.609375 157.371094 114.105469 157.371094 114.730469 L 157.371094 170.671875 C 157.371094 171.234375 157.621094 171.734375 157.996094 172.109375 C 158.367188 172.480469 158.867188 172.730469 159.492188 172.730469 L 215.433594 172.730469 C 215.996094 172.730469 216.496094 172.480469 216.871094 172.109375 C 217.242188 171.734375 217.492188 171.234375 217.492188 170.671875 L 217.492188 157.703125 L 205.707031 157.703125 L 205.707031 149.53125 L 217.492188 149.53125 L 217.492188 135.871094 L 189.863281 135.871094 L 189.863281 127.640625 L 217.492188 127.640625 L 217.492188 114.730469 C 217.492188 114.105469 217.242188 113.609375 216.871094 113.234375 C 216.496094 112.859375 215.996094 112.609375 215.433594 112.609375 Z M 230.839844 93.835938 L 144.085938 93.835938 C 142.589844 93.835938 141.21875 94.460938 140.21875 95.457031 C 139.222656 96.457031 138.597656 97.828125 138.597656 99.324219 L 138.597656 186.078125 C 138.597656 187.574219 139.222656 188.886719 140.21875 189.882812 C 141.21875 190.878906 142.589844 191.503906 144.085938 191.503906 L 230.839844 191.503906 C 232.335938 191.503906 233.644531 190.878906 234.644531 189.882812 C 235.640625 188.886719 236.265625 187.574219 236.265625 186.078125 L 236.265625 99.324219 C 236.265625 97.828125 235.640625 96.457031 234.644531 95.457031 C 233.644531 94.460938 232.335938 93.835938 230.839844 93.835938 Z M 230.839844 93.835938 " clip-rule="evenodd"/></clipPath><linearGradient x1="-2.796824" gradientTransform="matrix(6.236719, 0, 0, 6.236719, 93.943781, 49.182499)" y1="9.07948" x2="32.97617" gradientUnits="userSpaceOnUse" y2="20.098915" id="48b45003eb"><stop stop-opacity="1" stop-color="rgb(41.792297%, 24.833679%, 65.898132%)" offset="0"/><stop stop-opacity="1" stop-color="rgb(41.984558%, 24.981689%, 65.975952%)" offset="0.0078125"/><stop stop-opacity="1" stop-color="rgb(42.367554%, 25.27771%, 66.134644%)" offset="0.015625"/><stop stop-opacity="1" stop-color="rgb(42.752075%, 25.572205%, 66.291809%)" offset="0.0234375"/><stop stop-opacity="1" stop-color="rgb(43.136597%, 25.868225%, 66.448975%)" offset="0.03125"/><stop stop-opacity="1" stop-color="rgb(43.519592%, 26.16272%, 66.607666%)" offset="0.0390625"/><stop stop-opacity="1" stop-color="rgb(43.904114%, 26.45874%, 66.764832%)" offset="0.046875"/><stop stop-opacity="1" stop-color="rgb(44.287109%, 26.753235%, 66.923523%)" offset="0.0546875"/><stop stop-opacity="1" stop-color="rgb(44.671631%, 27.049255%, 67.080688%)" offset="0.0625"/><stop stop-opacity="1" stop-color="rgb(45.054626%, 27.34375%, 67.23938%)" offset="0.0703125"/><stop stop-opacity="1" stop-color="rgb(45.439148%, 27.639771%, 67.396545%)" offset="0.078125"/><stop stop-opacity="1" stop-color="rgb(45.823669%, 27.934265%, 67.555237%)" offset="0.0859375"/><stop stop-opacity="1" stop-color="rgb(46.206665%, 28.230286%, 67.712402%)" offset="0.09375"/><stop stop-opacity="1" stop-color="rgb(46.591187%, 28.526306%, 67.871094%)" offset="0.101562"/><stop stop-opacity="1" stop-color="rgb(46.974182%, 28.820801%, 68.028259%)" offset="0.109375"/><stop stop-opacity="1" stop-color="rgb(47.358704%, 29.116821%, 68.186951%)" offset="0.117188"/><stop stop-opacity="1" stop-color="rgb(47.741699%, 29.411316%, 68.344116%)" offset="0.125"/><stop stop-opacity="1" stop-color="rgb(48.126221%, 29.707336%, 68.502808%)" offset="0.132812"/><stop stop-opacity="1" stop-color="rgb(48.510742%, 30.001831%, 68.659973%)" offset="0.140625"/><stop stop-opacity="1" stop-color="rgb(48.893738%, 30.297852%, 68.818665%)" offset="0.148438"/><stop stop-opacity="1" stop-color="rgb(49.278259%, 30.592346%, 68.97583%)" offset="0.15625"/><stop stop-opacity="1" stop-color="rgb(49.661255%, 30.888367%, 69.134521%)" offset="0.164062"/><stop stop-opacity="1" stop-color="rgb(50.045776%, 31.184387%, 69.291687%)" offset="0.171875"/><stop stop-opacity="1" stop-color="rgb(50.428772%, 31.478882%, 69.450378%)" offset="0.179688"/><stop stop-opacity="1" stop-color="rgb(50.813293%, 31.774902%, 69.607544%)" offset="0.1875"/><stop stop-opacity="1" stop-color="rgb(51.197815%, 32.069397%, 69.766235%)" offset="0.195312"/><stop stop-opacity="1" stop-color="rgb(51.580811%, 32.365417%, 69.923401%)" offset="0.203125"/><stop stop-opacity="1" stop-color="rgb(51.965332%, 32.659912%, 70.082092%)" offset="0.210938"/><stop stop-opacity="1" stop-color="rgb(52.348328%, 32.955933%, 70.239258%)" offset="0.21875"/><stop stop-opacity="1" stop-color="rgb(52.732849%, 33.250427%, 70.397949%)" offset="0.226562"/><stop stop-opacity="1" stop-color="rgb(53.115845%, 33.546448%, 70.555115%)" offset="0.234375"/><stop stop-opacity="1" stop-color="rgb(53.500366%, 33.840942%, 70.713806%)" offset="0.235496"/><stop stop-opacity="1" stop-color="rgb(53.692627%, 33.988953%, 70.793152%)" offset="0.242188"/><stop stop-opacity="1" stop-color="rgb(53.884888%, 34.136963%, 70.870972%)" offset="0.25"/><stop stop-opacity="1" stop-color="rgb(54.267883%, 34.432983%, 71.029663%)" offset="0.257812"/><stop stop-opacity="1" stop-color="rgb(54.652405%, 34.727478%, 71.186829%)" offset="0.265625"/><stop stop-opacity="1" stop-color="rgb(55.0354%, 35.023499%, 71.34552%)" offset="0.273438"/><stop stop-opacity="1" stop-color="rgb(55.419922%, 35.317993%, 71.502686%)" offset="0.28125"/><stop stop-opacity="1" stop-color="rgb(55.802917%, 35.614014%, 71.661377%)" offset="0.289062"/><stop stop-opacity="1" stop-color="rgb(56.187439%, 35.908508%, 71.818542%)" offset="0.296875"/><stop stop-opacity="1" stop-color="rgb(56.57196%, 36.204529%, 71.977234%)" offset="0.304688"/><stop stop-opacity="1" stop-color="rgb(56.954956%, 36.499023%, 72.134399%)" offset="0.3125"/><stop stop-opacity="1" stop-color="rgb(57.339478%, 36.795044%, 72.291565%)" offset="0.320312"/><stop stop-opacity="1" stop-color="rgb(57.722473%, 37.091064%, 72.450256%)" offset="0.328125"/><stop stop-opacity="1" stop-color="rgb(58.106995%, 37.385559%, 72.607422%)" offset="0.335938"/><stop stop-opacity="1" stop-color="rgb(58.48999%, 37.68158%, 72.766113%)" offset="0.34375"/><stop stop-opacity="1" stop-color="rgb(58.874512%, 37.976074%, 72.923279%)" offset="0.351562"/><stop stop-opacity="1" stop-color="rgb(59.259033%, 38.272095%, 73.08197%)" offset="0.359375"/><stop stop-opacity="1" stop-color="rgb(59.642029%, 38.566589%, 73.239136%)" offset="0.367188"/><stop stop-opacity="1" stop-color="rgb(60.02655%, 38.86261%, 73.397827%)" offset="0.375"/><stop stop-opacity="1" stop-color="rgb(60.409546%, 39.157104%, 73.554993%)" offset="0.382812"/><stop stop-opacity="1" stop-color="rgb(60.794067%, 39.453125%, 73.713684%)" offset="0.390625"/><stop stop-opacity="1" stop-color="rgb(61.177063%, 39.74762%, 73.87085%)" offset="0.398438"/><stop stop-opacity="1" stop-color="rgb(61.561584%, 40.04364%, 74.029541%)" offset="0.40625"/><stop stop-opacity="1" stop-color="rgb(61.946106%, 40.339661%, 74.186707%)" offset="0.414062"/><stop stop-opacity="1" stop-color="rgb(62.329102%, 40.634155%, 74.345398%)" offset="0.421875"/><stop stop-opacity="1" stop-color="rgb(62.713623%, 40.930176%, 74.502563%)" offset="0.429688"/><stop stop-opacity="1" stop-color="rgb(63.096619%, 41.22467%, 74.661255%)" offset="0.4375"/><stop stop-opacity="1" stop-color="rgb(63.48114%, 41.520691%, 74.81842%)" offset="0.445312"/><stop stop-opacity="1" stop-color="rgb(63.864136%, 41.815186%, 74.977112%)" offset="0.453125"/><stop stop-opacity="1" stop-color="rgb(64.248657%, 42.111206%, 75.134277%)" offset="0.460938"/><stop stop-opacity="1" stop-color="rgb(64.633179%, 42.405701%, 75.292969%)" offset="0.46875"/><stop stop-opacity="1" stop-color="rgb(65.016174%, 42.701721%, 75.450134%)" offset="0.476562"/><stop stop-opacity="1" stop-color="rgb(65.400696%, 42.997742%, 75.608826%)" offset="0.484375"/><stop stop-opacity="1" stop-color="rgb(65.783691%, 43.292236%, 75.765991%)" offset="0.492188"/><stop stop-opacity="1" stop-color="rgb(66.168213%, 43.588257%, 75.924683%)" offset="0.5"/><stop stop-opacity="1" stop-color="rgb(66.551208%, 43.882751%, 76.081848%)" offset="0.507812"/><stop stop-opacity="1" stop-color="rgb(66.93573%, 44.178772%, 76.24054%)" offset="0.515625"/><stop stop-opacity="1" stop-color="rgb(67.320251%, 44.473267%, 76.397705%)" offset="0.523438"/><stop stop-opacity="1" stop-color="rgb(67.703247%, 44.769287%, 76.556396%)" offset="0.53125"/><stop stop-opacity="1" stop-color="rgb(68.087769%, 45.063782%, 76.713562%)" offset="0.539062"/><stop stop-opacity="1" stop-color="rgb(68.470764%, 45.359802%, 76.872253%)" offset="0.546875"/><stop stop-opacity="1" stop-color="rgb(68.855286%, 45.654297%, 77.029419%)" offset="0.554688"/><stop stop-opacity="1" stop-color="rgb(69.238281%, 45.950317%, 77.18811%)" offset="0.5625"/><stop stop-opacity="1" stop-color="rgb(69.622803%, 46.246338%, 77.345276%)" offset="0.570312"/><stop stop-opacity="1" stop-color="rgb(70.007324%, 46.540833%, 77.503967%)" offset="0.578125"/><stop stop-opacity="1" stop-color="rgb(70.39032%, 46.836853%, 77.661133%)" offset="0.585938"/><stop stop-opacity="1" stop-color="rgb(70.774841%, 47.131348%, 77.819824%)" offset="0.59375"/><stop stop-opacity="1" stop-color="rgb(71.157837%, 47.427368%, 77.97699%)" offset="0.601562"/><stop stop-opacity="1" stop-color="rgb(71.542358%, 47.721863%, 78.134155%)" offset="0.609375"/><stop stop-opacity="1" stop-color="rgb(71.925354%, 48.017883%, 78.292847%)" offset="0.617188"/><stop stop-opacity="1" stop-color="rgb(72.309875%, 48.312378%, 78.450012%)" offset="0.625"/><stop stop-opacity="1" stop-color="rgb(72.694397%, 48.608398%, 78.608704%)" offset="0.632812"/><stop stop-opacity="1" stop-color="rgb(73.077393%, 48.904419%, 78.765869%)" offset="0.640625"/><stop stop-opacity="1" stop-color="rgb(73.461914%, 49.198914%, 78.924561%)" offset="0.648438"/><stop stop-opacity="1" stop-color="rgb(73.84491%, 49.494934%, 79.081726%)" offset="0.65625"/><stop stop-opacity="1" stop-color="rgb(74.229431%, 49.789429%, 79.240417%)" offset="0.664062"/><stop stop-opacity="1" stop-color="rgb(74.612427%, 50.085449%, 79.397583%)" offset="0.671875"/><stop stop-opacity="1" stop-color="rgb(74.996948%, 50.379944%, 79.556274%)" offset="0.679688"/><stop stop-opacity="1" stop-color="rgb(75.38147%, 50.675964%, 79.71344%)" offset="0.6875"/><stop stop-opacity="1" stop-color="rgb(75.764465%, 50.970459%, 79.872131%)" offset="0.695312"/><stop stop-opacity="1" stop-color="rgb(76.148987%, 51.266479%, 80.029297%)" offset="0.703125"/><stop stop-opacity="1" stop-color="rgb(76.531982%, 51.560974%, 80.187988%)" offset="0.710938"/><stop stop-opacity="1" stop-color="rgb(76.916504%, 51.856995%, 80.345154%)" offset="0.71875"/><stop stop-opacity="1" stop-color="rgb(77.2995%, 52.153015%, 80.503845%)" offset="0.726562"/><stop stop-opacity="1" stop-color="rgb(77.684021%, 52.44751%, 80.661011%)" offset="0.734375"/><stop stop-opacity="1" stop-color="rgb(78.068542%, 52.74353%, 80.819702%)" offset="0.742188"/><stop stop-opacity="1" stop-color="rgb(78.451538%, 53.038025%, 80.976868%)" offset="0.75"/><stop stop-opacity="1" stop-color="rgb(78.83606%, 53.334045%, 81.135559%)" offset="0.757812"/><stop stop-opacity="1" stop-color="rgb(79.219055%, 53.62854%, 81.292725%)" offset="0.764504"/><stop stop-opacity="1" stop-color="rgb(79.411316%, 53.77655%, 81.37207%)" offset="0.765625"/><stop stop-opacity="1" stop-color="rgb(79.603577%, 53.924561%, 81.451416%)" offset="0.773438"/><stop stop-opacity="1" stop-color="rgb(79.986572%, 54.219055%, 81.608582%)" offset="0.78125"/><stop stop-opacity="1" stop-color="rgb(80.371094%, 54.515076%, 81.767273%)" offset="0.789062"/><stop stop-opacity="1" stop-color="rgb(80.755615%, 54.811096%, 81.924438%)" offset="0.796875"/><stop stop-opacity="1" stop-color="rgb(81.138611%, 55.105591%, 82.08313%)" offset="0.804688"/><stop stop-opacity="1" stop-color="rgb(81.523132%, 55.401611%, 82.240295%)" offset="0.8125"/><stop stop-opacity="1" stop-color="rgb(81.906128%, 55.696106%, 82.398987%)" offset="0.820312"/><stop stop-opacity="1" stop-color="rgb(82.290649%, 55.992126%, 82.556152%)" offset="0.828125"/><stop stop-opacity="1" stop-color="rgb(82.673645%, 56.286621%, 82.714844%)" offset="0.835938"/><stop stop-opacity="1" stop-color="rgb(83.058167%, 56.582642%, 82.872009%)" offset="0.84375"/><stop stop-opacity="1" stop-color="rgb(83.442688%, 56.877136%, 83.030701%)" offset="0.851562"/><stop stop-opacity="1" stop-color="rgb(83.825684%, 57.173157%, 83.187866%)" offset="0.859375"/><stop stop-opacity="1" stop-color="rgb(84.210205%, 57.467651%, 83.346558%)" offset="0.867188"/><stop stop-opacity="1" stop-color="rgb(84.593201%, 57.763672%, 83.503723%)" offset="0.875"/><stop stop-opacity="1" stop-color="rgb(84.977722%, 58.059692%, 83.660889%)" offset="0.882812"/><stop stop-opacity="1" stop-color="rgb(85.360718%, 58.354187%, 83.81958%)" offset="0.890625"/><stop stop-opacity="1" stop-color="rgb(85.745239%, 58.650208%, 83.976746%)" offset="0.898438"/><stop stop-opacity="1" stop-color="rgb(86.129761%, 58.944702%, 84.135437%)" offset="0.90625"/><stop stop-opacity="1" stop-color="rgb(86.512756%, 59.240723%, 84.292603%)" offset="0.914062"/><stop stop-opacity="1" stop-color="rgb(86.897278%, 59.535217%, 84.451294%)" offset="0.921875"/><stop stop-opacity="1" stop-color="rgb(87.280273%, 59.831238%, 84.608459%)" offset="0.929688"/><stop stop-opacity="1" stop-color="rgb(87.486267%, 59.988403%, 84.692383%)" offset="0.9375"/><stop stop-opacity="1" stop-color="rgb(87.5%, 59.999084%, 84.698486%)" offset="1"/></linearGradient></defs><g clip-path="url(#a45e26b583)"><g clip-path="url(#07626a4437)"><path fill="url(#48b45003eb)" d="M 93.945312 49.183594 L 93.945312 235.933594 L 280.695312 235.933594 L 280.695312 49.183594 Z M 93.945312 49.183594 " fill-rule="nonzero"/></g></g><g fill="#ffffff" fill-opacity="1"><g transform="translate(112.517899, 309.853045)"><g><path d="M 9.15625 -7.847656 L 5.230469 -7.847656 L 5.230469 0 L 3.925781 0 L 3.925781 -7.847656 L 0 -7.847656 L 0 -9.15625 L 9.15625 -9.15625 Z M 9.15625 -7.847656 "/></g></g></g><g fill="#ffffff" fill-opacity="1"><g transform="translate(125.427085, 309.853045)"><g><path d="M 1.960938 -7.847656 L 1.960938 -5.230469 L 8.503906 -5.230469 L 8.503906 -3.925781 L 1.960938 -3.925781 L 1.960938 -1.308594 L 9.808594 -1.308594 L 9.808594 0 L 0.652344 0 L 0.652344 -9.15625 L 9.808594 -9.15625 L 9.808594 -7.847656 Z M 1.960938 -7.847656 "/></g></g></g><g fill="#ffffff" fill-opacity="1"><g transform="translate(139.382514, 309.853045)"><g><path d="M 3.140625 -9.15625 L 7.0625 -9.15625 C 7.535156 -9.15625 7.964844 -9.039062 8.351562 -8.804688 C 8.738281 -8.566406 9.054688 -8.253906 9.300781 -7.859375 C 9.542969 -7.46875 9.671875 -7.027344 9.679688 -6.539062 L 8.371094 -6.539062 C 8.371094 -6.898438 8.242188 -7.203125 7.984375 -7.460938 C 7.726562 -7.71875 7.421875 -7.847656 7.0625 -7.847656 L 3.140625 -7.847656 C 2.78125 -7.847656 2.472656 -7.71875 2.21875 -7.460938 C 1.960938 -7.203125 1.832031 -6.898438 1.832031 -6.539062 L 1.832031 -2.617188 C 1.832031 -2.257812 1.960938 -1.949219 2.21875 -1.695312 C 2.472656 -1.4375 2.78125 -1.308594 3.140625 -1.308594 L 7.0625 -1.308594 C 7.421875 -1.308594 7.726562 -1.4375 7.984375 -1.695312 C 8.242188 -1.949219 8.371094 -2.257812 8.371094 -2.617188 L 9.679688 -2.617188 C 9.679688 -2.152344 9.5625 -1.722656 9.332031 -1.328125 C 9.101562 -0.929688 8.789062 -0.609375 8.390625 -0.367188 C 7.992188 -0.121094 7.550781 0 7.0625 0 L 3.140625 0 C 2.675781 0 2.246094 -0.117188 1.84375 -0.347656 C 1.441406 -0.578125 1.121094 -0.890625 0.882812 -1.289062 C 0.644531 -1.683594 0.523438 -2.128906 0.523438 -2.617188 L 0.523438 -6.539062 C 0.523438 -7.011719 0.640625 -7.441406 0.871094 -7.835938 C 1.101562 -8.226562 1.414062 -8.542969 1.8125 -8.785156 C 2.207031 -9.023438 2.652344 -9.148438 3.140625 -9.15625 Z M 3.140625 -9.15625 "/></g></g></g><g fill="#ffffff" fill-opacity="1"><g transform="translate(153.20717, 309.853045)"><g><path d="M 1.960938 -9.15625 L 1.960938 -5.230469 L 8.503906 -5.230469 L 8.503906 -9.15625 L 9.808594 -9.15625 L 9.808594 0 L 8.503906 0 L 8.503906 -3.925781 L 1.960938 -3.925781 L 1.960938 0 L 0.652344 0 L 0.652344 -9.15625 Z M 1.960938 -9.15625 "/></g></g></g><g fill="#ffffff" fill-opacity="1"><g transform="translate(167.424165, 309.853045)"><g><path d="M 9.808594 -9.15625 L 9.808594 0 L 8.503906 0 L 1.960938 -7.035156 L 1.960938 0 L 0.652344 0 L 0.652344 -9.15625 L 1.960938 -9.15625 L 8.503906 -2.222656 L 8.503906 -9.15625 Z M 9.808594 -9.15625 "/></g></g></g><g fill="#ffffff" fill-opacity="1"><g transform="translate(181.64116, 309.853045)"><g><path d="M 8.371094 -2.617188 L 8.371094 -6.539062 C 8.371094 -6.898438 8.242188 -7.203125 7.984375 -7.460938 C 7.726562 -7.71875 7.421875 -7.847656 7.0625 -7.847656 L 3.140625 -7.847656 C 2.78125 -7.847656 2.472656 -7.71875 2.21875 -7.460938 C 1.960938 -7.203125 1.832031 -6.898438 1.832031 -6.539062 L 1.832031 -2.617188 C 1.832031 -2.257812 1.960938 -1.949219 2.21875 -1.695312 C 2.472656 -1.4375 2.78125 -1.308594 3.140625 -1.308594 L 7.0625 -1.308594 C 7.421875 -1.308594 7.726562 -1.4375 7.984375 -1.695312 C 8.242188 -1.949219 8.371094 -2.257812 8.371094 -2.617188 Z M 9.679688 -6.539062 L 9.679688 -2.617188 C 9.679688 -2.136719 9.5625 -1.699219 9.324219 -1.300781 C 9.089844 -0.90625 8.773438 -0.589844 8.378906 -0.351562 C 7.980469 -0.117188 7.542969 0 7.0625 0 L 3.140625 0 C 2.660156 0 2.222656 -0.117188 1.824219 -0.351562 C 1.429688 -0.589844 1.113281 -0.90625 0.875 -1.300781 C 0.640625 -1.699219 0.523438 -2.136719 0.523438 -2.617188 L 0.523438 -6.539062 C 0.523438 -7.019531 0.640625 -7.457031 0.875 -7.855469 C 1.113281 -8.25 1.429688 -8.566406 1.824219 -8.804688 C 2.222656 -9.039062 2.660156 -9.15625 3.140625 -9.15625 L 7.0625 -9.15625 C 7.523438 -9.15625 7.953125 -9.035156 8.351562 -8.796875 C 8.75 -8.554688 9.070312 -8.242188 9.3125 -7.847656 C 9.558594 -7.457031 9.679688 -7.019531 9.679688 -6.539062 Z M 9.679688 -6.539062 "/></g></g></g><g fill="#ffffff" fill-opacity="1"><g transform="translate(195.596588, 309.853045)"><g><path d="M 1.960938 -9.15625 L 1.960938 -1.308594 L 9.808594 -1.308594 L 9.808594 0 L 0.652344 0 L 0.652344 -9.15625 Z M 1.960938 -9.15625 "/></g></g></g><g fill="#ffffff" fill-opacity="1"><g transform="translate(209.159678, 309.853045)"><g><path d="M 8.371094 -2.617188 L 8.371094 -6.539062 C 8.371094 -6.898438 8.242188 -7.203125 7.984375 -7.460938 C 7.726562 -7.71875 7.421875 -7.847656 7.0625 -7.847656 L 3.140625 -7.847656 C 2.78125 -7.847656 2.472656 -7.71875 2.21875 -7.460938 C 1.960938 -7.203125 1.832031 -6.898438 1.832031 -6.539062 L 1.832031 -2.617188 C 1.832031 -2.257812 1.960938 -1.949219 2.21875 -1.695312 C 2.472656 -1.4375 2.78125 -1.308594 3.140625 -1.308594 L 7.0625 -1.308594 C 7.421875 -1.308594 7.726562 -1.4375 7.984375 -1.695312 C 8.242188 -1.949219 8.371094 -2.257812 8.371094 -2.617188 Z M 9.679688 -6.539062 L 9.679688 -2.617188 C 9.679688 -2.136719 9.5625 -1.699219 9.324219 -1.300781 C 9.089844 -0.90625 8.773438 -0.589844 8.378906 -0.351562 C 7.980469 -0.117188 7.542969 0 7.0625 0 L 3.140625 0 C 2.660156 0 2.222656 -0.117188 1.824219 -0.351562 C 1.429688 -0.589844 1.113281 -0.90625 0.875 -1.300781 C 0.640625 -1.699219 0.523438 -2.136719 0.523438 -2.617188 L 0.523438 -6.539062 C 0.523438 -7.019531 0.640625 -7.457031 0.875 -7.855469 C 1.113281 -8.25 1.429688 -8.566406 1.824219 -8.804688 C 2.222656 -9.039062 2.660156 -9.15625 3.140625 -9.15625 L 7.0625 -9.15625 C 7.523438 -9.15625 7.953125 -9.035156 8.351562 -8.796875 C 8.75 -8.554688 9.070312 -8.242188 9.3125 -7.847656 C 9.558594 -7.457031 9.679688 -7.019531 9.679688 -6.539062 Z M 9.679688 -6.539062 "/></g></g></g><g fill="#ffffff" fill-opacity="1"><g transform="translate(223.115107, 309.853045)"><g><path d="M 4.445312 -3.925781 L 4.445312 -5.230469 L 9.679688 -5.230469 L 9.679688 -2.617188 C 9.679688 -2.152344 9.5625 -1.722656 9.332031 -1.328125 C 9.101562 -0.929688 8.789062 -0.609375 8.390625 -0.367188 C 7.992188 -0.121094 7.550781 0 7.0625 0 L 3.140625 0 C 2.675781 0 2.246094 -0.117188 1.84375 -0.347656 C 1.441406 -0.578125 1.121094 -0.890625 0.882812 -1.289062 C 0.644531 -1.683594 0.523438 -2.128906 0.523438 -2.617188 L 0.523438 -6.539062 C 0.523438 -7.003906 0.640625 -7.429688 0.871094 -7.828125 C 1.101562 -8.226562 1.414062 -8.546875 1.8125 -8.789062 C 2.207031 -9.035156 2.652344 -9.15625 3.140625 -9.15625 L 7.0625 -9.15625 C 7.535156 -9.15625 7.964844 -9.039062 8.351562 -8.804688 C 8.738281 -8.566406 9.054688 -8.253906 9.300781 -7.859375 C 9.542969 -7.46875 9.671875 -7.027344 9.679688 -6.539062 L 8.371094 -6.539062 C 8.371094 -6.898438 8.242188 -7.203125 7.984375 -7.460938 C 7.726562 -7.71875 7.421875 -7.847656 7.0625 -7.847656 L 3.140625 -7.847656 C 2.78125 -7.847656 2.472656 -7.71875 2.21875 -7.460938 C 1.960938 -7.203125 1.832031 -6.898438 1.832031 -6.539062 L 1.832031 -2.617188 C 1.832031 -2.257812 1.960938 -1.949219 2.21875 -1.695312 C 2.472656 -1.4375 2.78125 -1.308594 3.140625 -1.308594 L 7.0625 -1.308594 C 7.421875 -1.308594 7.726562 -1.4375 7.984375 -1.695312 C 8.242188 -1.949219 8.371094 -2.257812 8.371094 -2.617188 L 8.371094 -3.925781 Z M 4.445312 -3.925781 "/></g></g></g><g fill="#ffffff" fill-opacity="1"><g transform="translate(237.070535, 309.853045)"><g><path d="M 0.652344 -9.15625 L 1.960938 -9.15625 L 1.960938 0 L 0.652344 0 Z M 0.652344 -9.15625 "/></g></g></g><g fill="#ffffff" fill-opacity="1"><g transform="translate(243.440671, 309.853045)"><g><path d="M 1.960938 -7.847656 L 1.960938 -5.230469 L 8.503906 -5.230469 L 8.503906 -3.925781 L 1.960938 -3.925781 L 1.960938 -1.308594 L 9.808594 -1.308594 L 9.808594 0 L 0.652344 0 L 0.652344 -9.15625 L 9.808594 -9.15625 L 9.808594 -7.847656 Z M 1.960938 -7.847656 "/></g></g></g><g fill="#ffffff" fill-opacity="1"><g transform="translate(257.396099, 309.853045)"><g><path d="M 9.679688 -2.617188 C 9.679688 -2.152344 9.5625 -1.722656 9.332031 -1.328125 C 9.101562 -0.929688 8.789062 -0.609375 8.390625 -0.367188 C 7.992188 -0.121094 7.550781 0 7.0625 0 L 3.140625 0 C 2.667969 0 2.238281 -0.117188 1.84375 -0.347656 C 1.453125 -0.578125 1.136719 -0.890625 0.902344 -1.289062 C 0.667969 -1.683594 0.539062 -2.128906 0.523438 -2.617188 L 1.832031 -2.617188 C 1.832031 -2.257812 1.960938 -1.949219 2.21875 -1.695312 C 2.472656 -1.4375 2.78125 -1.308594 3.140625 -1.308594 L 7.0625 -1.308594 C 7.421875 -1.308594 7.726562 -1.4375 7.984375 -1.695312 C 8.242188 -1.949219 8.371094 -2.257812 8.371094 -2.617188 C 8.371094 -2.972656 8.242188 -3.28125 7.984375 -3.539062 C 7.726562 -3.796875 7.421875 -3.925781 7.0625 -3.925781 L 3.140625 -3.925781 C 2.675781 -3.925781 2.246094 -4.039062 1.84375 -4.269531 C 1.441406 -4.5 1.121094 -4.816406 0.882812 -5.210938 C 0.644531 -5.609375 0.523438 -6.050781 0.523438 -6.539062 C 0.523438 -7.003906 0.640625 -7.429688 0.871094 -7.828125 C 1.101562 -8.226562 1.414062 -8.546875 1.8125 -8.789062 C 2.207031 -9.035156 2.652344 -9.15625 3.140625 -9.15625 L 7.0625 -9.15625 C 7.535156 -9.15625 7.964844 -9.039062 8.351562 -8.804688 C 8.738281 -8.566406 9.054688 -8.253906 9.300781 -7.859375 C 9.542969 -7.46875 9.671875 -7.027344 9.679688 -6.539062 L 8.371094 -6.539062 C 8.371094 -6.898438 8.242188 -7.203125 7.984375 -7.460938 C 7.726562 -7.71875 7.421875 -7.847656 7.0625 -7.847656 L 3.140625 -7.847656 C 2.78125 -7.847656 2.472656 -7.71875 2.21875 -7.460938 C 1.960938 -7.203125 1.832031 -6.898438 1.832031 -6.539062 C 1.832031 -6.183594 1.960938 -5.875 2.21875 -5.617188 C 2.472656 -5.359375 2.78125 -5.230469 3.140625 -5.230469 L 7.0625 -5.230469 C 7.523438 -5.230469 7.953125 -5.113281 8.351562 -4.878906 C 8.75 -4.644531 9.070312 -4.328125 9.3125 -3.9375 C 9.558594 -3.542969 9.679688 -3.105469 9.679688 -2.617188 Z M 9.679688 -2.617188 "/></g></g></g><g fill="#ffffff" fill-opacity="1"><g transform="translate(99.074237, 286.816187)"><g><path d="M 10.765625 -6.09375 L 21.109375 -6.09375 L 21.109375 0 L 2.859375 0 L 2.859375 -32.4375 L 10.765625 -32.4375 Z M 10.765625 -6.09375 "/></g></g></g><g fill="#ffffff" fill-opacity="1"><g transform="translate(121.112622, 286.816187)"><g><path d="M 10.625 -32.4375 L 10.625 -13.03125 C 10.625 -11.09375 11.097656 -9.597656 12.046875 -8.546875 C 13.003906 -7.503906 14.410156 -6.984375 16.265625 -6.984375 C 18.109375 -6.984375 19.523438 -7.503906 20.515625 -8.546875 C 21.503906 -9.597656 22 -11.09375 22 -13.03125 L 22 -32.4375 L 29.890625 -32.4375 L 29.890625 -13.078125 C 29.890625 -10.179688 29.273438 -7.726562 28.046875 -5.71875 C 26.816406 -3.71875 25.160156 -2.207031 23.078125 -1.1875 C 20.992188 -0.175781 18.675781 0.328125 16.125 0.328125 C 13.570312 0.328125 11.285156 -0.171875 9.265625 -1.171875 C 7.242188 -2.179688 5.644531 -3.691406 4.46875 -5.703125 C 3.300781 -7.722656 2.71875 -10.179688 2.71875 -13.078125 L 2.71875 -32.4375 Z M 10.625 -32.4375 "/></g></g></g><g fill="#ffffff" fill-opacity="1"><g transform="translate(153.685076, 286.816187)"><g><path d="M 39.59375 -32.4375 L 39.59375 0 L 31.703125 0 L 31.703125 -19.453125 L 24.4375 0 L 18.0625 0 L 10.765625 -19.5 L 10.765625 0 L 2.859375 0 L 2.859375 -32.4375 L 12.203125 -32.4375 L 21.296875 -9.984375 L 30.3125 -32.4375 Z M 39.59375 -32.4375 "/></g></g></g><g fill="#ffffff" fill-opacity="1"><g transform="translate(196.098573, 286.816187)"><g><path d="M 10.765625 -32.4375 L 10.765625 0 L 2.859375 0 L 2.859375 -32.4375 Z M 10.765625 -32.4375 "/></g></g></g><g fill="#ffffff" fill-opacity="1"><g transform="translate(209.728174, 286.816187)"><g><path d="M 31.875 0 L 23.984375 0 L 10.765625 -20 L 10.765625 0 L 2.859375 0 L 2.859375 -32.4375 L 10.765625 -32.4375 L 23.984375 -12.34375 L 23.984375 -32.4375 L 31.875 -32.4375 Z M 31.875 0 "/></g></g></g><g fill="#ffffff" fill-opacity="1"><g transform="translate(244.472133, 286.816187)"><g><path d="M 23.0625 -5.734375 L 10.953125 -5.734375 L 9.015625 0 L 0.734375 0 L 12.46875 -32.4375 L 21.625 -32.4375 L 33.359375 0 L 25 0 Z M 21.015625 -11.828125 L 17 -23.703125 L 13.03125 -11.828125 Z M 21.015625 -11.828125 "/></g></g></g></svg>