<svg xmlns="http://www.w3.org/2000/svg" xmlns:xlink="http://www.w3.org/1999/xlink" width="500" zoomAndPan="magnify" viewBox="0 0 375 129.750003" height="173" preserveAspectRatio="xMidYMid meet" version="1.0"><defs><g/><clipPath id="c027f14789"><path d="M 80.6875 27.71875 L 170.515625 27.71875 L 170.515625 101.816406 L 80.6875 101.816406 Z M 80.6875 27.71875 " clip-rule="nonzero"/></clipPath><clipPath id="d623d3dc46"><path d="M 148.257812 28.582031 L 125.660156 50.773438 L 103.058594 28.582031 C 102.476562 27.992188 101.769531 27.703125 100.941406 27.71875 L 82.214844 27.71875 C 81.792969 27.71875 81.433594 27.867188 81.132812 28.164062 C 80.835938 28.464844 80.6875 28.824219 80.6875 29.246094 L 80.6875 56.925781 C 80.667969 57.789062 80.972656 58.519531 81.597656 59.113281 L 108.457031 85.492188 L 122.105469 72.097656 L 115.339844 74.421875 L 94.082031 53.53125 L 94.082031 37.582031 L 125.660156 68.613281 L 156.574219 38.21875 L 156.574219 54.191406 L 116.59375 93.46875 L 124.589844 101.351562 C 124.886719 101.636719 125.246094 101.777344 125.660156 101.777344 C 126.074219 101.777344 126.429688 101.636719 126.730469 101.351562 L 169.71875 59.113281 C 170.339844 58.515625 170.644531 57.785156 170.632812 56.925781 L 170.632812 29.246094 C 170.632812 28.824219 170.480469 28.464844 170.183594 28.164062 C 169.886719 27.867188 169.527344 27.71875 169.105469 27.71875 L 150.378906 27.71875 C 149.546875 27.703125 148.84375 27.992188 148.257812 28.582031 " clip-rule="evenodd"/></clipPath></defs><g clip-path="url(#c027f14789)"><g clip-path="url(#d623d3dc46)"><path fill="#ffffff" d="M 80.6875 27.71875 L 80.6875 101.777344 L 170.515625 101.777344 L 170.515625 27.71875 Z M 80.6875 27.71875 " fill-opacity="1" fill-rule="nonzero"/></g></g><g fill="#ffffff" fill-opacity="1"><g transform="translate(176.914582, 55.966753)"><g><path d="M 6.984375 -3.953125 L 13.703125 -3.953125 L 13.703125 0 L 1.859375 0 L 1.859375 -21.046875 L 6.984375 -21.046875 Z M 6.984375 -3.953125 "/></g></g></g><g fill="#ffffff" fill-opacity="1"><g transform="translate(191.215676, 55.966753)"><g><path d="M 6.890625 -21.046875 L 6.890625 -8.453125 C 6.890625 -7.191406 7.195312 -6.222656 7.8125 -5.546875 C 8.4375 -4.867188 9.347656 -4.53125 10.546875 -4.53125 C 11.753906 -4.53125 12.675781 -4.867188 13.3125 -5.546875 C 13.945312 -6.222656 14.265625 -7.191406 14.265625 -8.453125 L 14.265625 -21.046875 L 19.40625 -21.046875 L 19.40625 -8.484375 C 19.40625 -6.609375 19.003906 -5.019531 18.203125 -3.71875 C 17.398438 -2.414062 16.320312 -1.4375 14.96875 -0.78125 C 13.625 -0.125 12.125 0.203125 10.46875 0.203125 C 8.800781 0.203125 7.3125 -0.117188 6 -0.765625 C 4.695312 -1.410156 3.664062 -2.390625 2.90625 -3.703125 C 2.144531 -5.015625 1.765625 -6.609375 1.765625 -8.484375 L 1.765625 -21.046875 Z M 6.890625 -21.046875 "/></g></g></g><g fill="#ffffff" fill-opacity="1"><g transform="translate(212.352514, 55.966753)"><g><path d="M 25.703125 -21.046875 L 25.703125 0 L 20.5625 0 L 20.5625 -12.625 L 15.859375 0 L 11.71875 0 L 6.984375 -12.65625 L 6.984375 0 L 1.859375 0 L 1.859375 -21.046875 L 7.921875 -21.046875 L 13.828125 -6.484375 L 19.671875 -21.046875 Z M 25.703125 -21.046875 "/></g></g></g><g fill="#ffffff" fill-opacity="1"><g transform="translate(239.875377, 55.966753)"><g><path d="M 6.984375 -21.046875 L 6.984375 0 L 1.859375 0 L 1.859375 -21.046875 Z M 6.984375 -21.046875 "/></g></g></g><g fill="#ffffff" fill-opacity="1"><g transform="translate(248.719869, 55.966753)"><g><path d="M 20.6875 0 L 15.5625 0 L 6.984375 -12.984375 L 6.984375 0 L 1.859375 0 L 1.859375 -21.046875 L 6.984375 -21.046875 L 15.5625 -8 L 15.5625 -21.046875 L 20.6875 -21.046875 Z M 20.6875 0 "/></g></g></g><g fill="#ffffff" fill-opacity="1"><g transform="translate(271.265831, 55.966753)"><g><path d="M 14.96875 -3.71875 L 7.109375 -3.71875 L 5.84375 0 L 0.484375 0 L 8.09375 -21.046875 L 14.03125 -21.046875 L 21.65625 0 L 16.21875 0 Z M 13.640625 -7.671875 L 11.03125 -15.375 L 8.453125 -7.671875 Z M 13.640625 -7.671875 "/></g></g></g></svg>