<svg xmlns="http://www.w3.org/2000/svg" xmlns:xlink="http://www.w3.org/1999/xlink" width="400" zoomAndPan="magnify" viewBox="0 0 300 83.999999" height="112" preserveAspectRatio="xMidYMid meet" version="1.0"><defs><g/><clipPath id="a1900f54cb"><path d="M 16.824219 22.878906 L 63.253906 22.878906 L 63.253906 61.125 L 16.824219 61.125 Z M 16.824219 22.878906 " clip-rule="nonzero"/></clipPath><clipPath id="fe35f89c95"><path d="M 51.703125 23.324219 L 40.039062 34.78125 L 28.371094 23.324219 C 28.070312 23.019531 27.707031 22.871094 27.277344 22.878906 L 17.613281 22.878906 C 17.085938 22.878906 16.824219 23.140625 16.824219 23.664062 L 16.824219 37.953125 C 16.8125 38.402344 16.96875 38.777344 17.292969 39.082031 L 31.160156 52.703125 L 38.203125 45.785156 L 34.710938 46.988281 L 23.738281 36.203125 L 23.738281 27.96875 L 40.039062 43.988281 L 55.996094 28.300781 L 55.996094 36.542969 L 35.359375 56.816406 L 39.484375 60.886719 C 39.855469 61.238281 40.222656 61.238281 40.589844 60.886719 L 62.785156 39.082031 C 63.101562 38.773438 63.257812 38.398438 63.253906 37.953125 L 63.253906 23.664062 C 63.253906 23.140625 62.992188 22.878906 62.464844 22.878906 L 52.796875 22.878906 C 52.371094 22.871094 52.007812 23.019531 51.703125 23.324219 " clip-rule="evenodd"/></clipPath></defs><g fill="#ffffff" fill-opacity="1"><g transform="translate(40.043847, 61.208016)"><g><path d="M 13.078125 -7.40625 L 25.65625 -7.40625 L 25.65625 0 L 3.484375 0 L 3.484375 -39.421875 L 13.078125 -39.421875 Z M 13.078125 -7.40625 "/></g></g></g><g fill="#ffffff" fill-opacity="1"><g transform="translate(66.826681, 61.208016)"><g><path d="M 12.921875 -39.421875 L 12.921875 -15.84375 C 12.921875 -13.476562 13.5 -11.660156 14.65625 -10.390625 C 15.8125 -9.117188 17.515625 -8.484375 19.765625 -8.484375 C 22.015625 -8.484375 23.738281 -9.117188 24.9375 -10.390625 C 26.132812 -11.660156 26.734375 -13.476562 26.734375 -15.84375 L 26.734375 -39.421875 L 36.328125 -39.421875 L 36.328125 -15.890625 C 36.328125 -12.367188 35.578125 -9.390625 34.078125 -6.953125 C 32.585938 -4.523438 30.578125 -2.691406 28.046875 -1.453125 C 25.523438 -0.222656 22.707031 0.390625 19.59375 0.390625 C 16.488281 0.390625 13.707031 -0.210938 11.25 -1.421875 C 8.800781 -2.640625 6.863281 -4.472656 5.4375 -6.921875 C 4.019531 -9.378906 3.3125 -12.367188 3.3125 -15.890625 L 3.3125 -39.421875 Z M 12.921875 -39.421875 "/></g></g></g><g fill="#ffffff" fill-opacity="1"><g transform="translate(106.41138, 61.208016)"><g><path d="M 48.125 -39.421875 L 48.125 0 L 38.515625 0 L 38.515625 -23.640625 L 29.703125 0 L 21.953125 0 L 13.078125 -23.703125 L 13.078125 0 L 3.484375 0 L 3.484375 -39.421875 L 14.828125 -39.421875 L 25.890625 -12.125 L 36.84375 -39.421875 Z M 48.125 -39.421875 "/></g></g></g><g fill="#ffffff" fill-opacity="1"><g transform="translate(157.955709, 61.208016)"><g><path d="M 13.078125 -39.421875 L 13.078125 0 L 3.484375 0 L 3.484375 -39.421875 Z M 13.078125 -39.421875 "/></g></g></g><g fill="#ffffff" fill-opacity="1"><g transform="translate(174.51952, 61.208016)"><g><path d="M 38.75 0 L 29.140625 0 L 13.078125 -24.3125 L 13.078125 0 L 3.484375 0 L 3.484375 -39.421875 L 13.078125 -39.421875 L 29.140625 -15 L 29.140625 -39.421875 L 38.75 -39.421875 Z M 38.75 0 "/></g></g></g><g fill="#ffffff" fill-opacity="1"><g transform="translate(216.743198, 61.208016)"><g><path d="M 28.015625 -6.96875 L 13.3125 -6.96875 L 10.953125 0 L 0.90625 0 L 15.15625 -39.421875 L 26.28125 -39.421875 L 40.546875 0 L 30.375 0 Z M 25.546875 -14.375 L 20.671875 -28.8125 L 15.84375 -14.375 Z M 25.546875 -14.375 "/></g></g></g><g clip-path="url(#a1900f54cb)"><g clip-path="url(#fe35f89c95)"><path fill="#ffffff" d="M 16.824219 22.878906 L 16.824219 61.125 L 63.253906 61.125 L 63.253906 22.878906 Z M 16.824219 22.878906 " fill-opacity="1" fill-rule="nonzero"/></g></g></svg>