<svg xmlns="http://www.w3.org/2000/svg" xmlns:xlink="http://www.w3.org/1999/xlink" width="500" zoomAndPan="magnify" viewBox="0 0 375 129.750003" height="173" preserveAspectRatio="xMidYMid meet" version="1.0"><defs><g/><clipPath id="ada732b09f"><path d="M 77.164062 26.492188 L 169.984375 26.492188 L 169.984375 102.839844 L 77.164062 102.839844 Z M 77.164062 26.492188 " clip-rule="nonzero"/></clipPath><clipPath id="73a2f4a379"><path d="M 146.957031 27.386719 L 123.617188 50.308594 L 100.273438 27.386719 C 99.667969 26.777344 98.941406 26.480469 98.082031 26.492188 L 78.742188 26.492188 C 78.304688 26.492188 77.933594 26.648438 77.625 26.957031 C 77.316406 27.261719 77.164062 27.636719 77.164062 28.070312 L 77.164062 56.660156 C 77.144531 57.554688 77.457031 58.308594 78.105469 58.921875 L 105.847656 86.171875 L 119.945312 72.332031 L 112.957031 74.734375 L 91 53.15625 L 91 36.683594 L 123.617188 68.734375 L 155.546875 37.34375 L 155.546875 53.835938 L 114.25 94.40625 L 122.507812 102.546875 C 122.820312 102.84375 123.1875 102.992188 123.617188 102.992188 C 124.042969 102.992188 124.410156 102.84375 124.722656 102.546875 L 169.125 58.921875 C 169.765625 58.304688 170.078125 57.550781 170.066406 56.660156 L 170.066406 28.070312 C 170.066406 27.636719 169.914062 27.261719 169.605469 26.957031 C 169.296875 26.648438 168.925781 26.492188 168.492188 26.492188 L 149.148438 26.492188 C 148.289062 26.480469 147.5625 26.777344 146.957031 27.386719 " clip-rule="evenodd"/></clipPath></defs><g clip-path="url(#ada732b09f)"><g clip-path="url(#73a2f4a379)"><path fill="#ffffff" d="M 77.164062 26.492188 L 77.164062 102.839844 L 169.984375 102.839844 L 169.984375 26.492188 Z M 77.164062 26.492188 " fill-opacity="1" fill-rule="nonzero"/></g></g><g fill="#ffffff" fill-opacity="1"><g transform="translate(176.565407, 75.435422)"><g><path d="M 7.21875 -4.09375 L 14.15625 -4.09375 L 14.15625 0 L 1.921875 0 L 1.921875 -21.734375 L 7.21875 -21.734375 Z M 7.21875 -4.09375 "/></g></g></g><g fill="#ffffff" fill-opacity="1"><g transform="translate(191.338257, 75.435422)"><g><path d="M 7.125 -21.734375 L 7.125 -8.734375 C 7.125 -7.429688 7.441406 -6.425781 8.078125 -5.71875 C 8.722656 -5.019531 9.664062 -4.671875 10.90625 -4.671875 C 12.144531 -4.671875 13.09375 -5.019531 13.75 -5.71875 C 14.40625 -6.425781 14.734375 -7.429688 14.734375 -8.734375 L 14.734375 -21.734375 L 20.03125 -21.734375 L 20.03125 -8.765625 C 20.03125 -6.828125 19.617188 -5.1875 18.796875 -3.84375 C 17.972656 -2.5 16.863281 -1.484375 15.46875 -0.796875 C 14.070312 -0.117188 12.519531 0.21875 10.8125 0.21875 C 9.09375 0.21875 7.554688 -0.113281 6.203125 -0.78125 C 4.859375 -1.457031 3.789062 -2.472656 3 -3.828125 C 2.21875 -5.179688 1.828125 -6.828125 1.828125 -8.765625 L 1.828125 -21.734375 Z M 7.125 -21.734375 "/></g></g></g><g fill="#ffffff" fill-opacity="1"><g transform="translate(213.172346, 75.435422)"><g><path d="M 26.546875 -21.734375 L 26.546875 0 L 21.25 0 L 21.25 -13.03125 L 16.375 0 L 12.109375 0 L 7.21875 -13.0625 L 7.21875 0 L 1.921875 0 L 1.921875 -21.734375 L 8.171875 -21.734375 L 14.28125 -6.6875 L 20.3125 -21.734375 Z M 26.546875 -21.734375 "/></g></g></g><g fill="#ffffff" fill-opacity="1"><g transform="translate(241.603117, 75.435422)"><g><path d="M 7.21875 -21.734375 L 7.21875 0 L 1.921875 0 L 1.921875 -21.734375 Z M 7.21875 -21.734375 "/></g></g></g><g fill="#ffffff" fill-opacity="1"><g transform="translate(250.739367, 75.435422)"><g><path d="M 21.375 0 L 16.078125 0 L 7.21875 -13.40625 L 7.21875 0 L 1.921875 0 L 1.921875 -21.734375 L 7.21875 -21.734375 L 16.078125 -8.265625 L 16.078125 -21.734375 L 21.375 -21.734375 Z M 21.375 0 "/></g></g></g><g fill="#ffffff" fill-opacity="1"><g transform="translate(274.029063, 75.435422)"><g><path d="M 15.453125 -3.84375 L 7.34375 -3.84375 L 6.03125 0 L 0.5 0 L 8.359375 -21.734375 L 14.5 -21.734375 L 22.359375 0 L 16.75 0 Z M 14.09375 -7.921875 L 11.390625 -15.890625 L 8.734375 -7.921875 Z M 14.09375 -7.921875 "/></g></g></g></svg>