<svg xmlns="http://www.w3.org/2000/svg" xmlns:xlink="http://www.w3.org/1999/xlink" width="500" zoomAndPan="magnify" viewBox="0 0 375 374.999991" height="500" preserveAspectRatio="xMidYMid meet" version="1.0"><defs><clipPath id="6b5f7c9e25"><path d="M 37.5 63.980469 L 337.5 63.980469 L 337.5 310.703125 L 37.5 310.703125 Z M 37.5 63.980469 " clip-rule="nonzero"/></clipPath><clipPath id="894c4e8d67"><path d="M 262.878906 66.867188 L 187.5 140.882812 L 112.121094 66.867188 C 110.175781 64.902344 107.820312 63.9375 105.054688 63.980469 L 42.589844 63.980469 C 41.917969 63.980469 41.265625 64.109375 40.644531 64.367188 C 40.019531 64.628906 39.46875 64.996094 38.992188 65.472656 C 38.515625 65.949219 38.144531 66.5 37.886719 67.125 C 37.628906 67.746094 37.5 68.398438 37.5 69.074219 L 37.5 161.398438 C 37.433594 164.28125 38.445312 166.710938 40.539062 168.691406 L 130.128906 256.6875 L 175.644531 212.003906 L 153.078125 219.757812 L 82.179688 150.074219 L 82.179688 96.882812 L 187.5 200.378906 L 290.617188 99.011719 L 290.617188 152.277344 L 157.257812 283.28125 L 183.929688 309.574219 C 184.410156 310.035156 184.957031 310.386719 185.574219 310.636719 C 186.195312 310.882812 186.835938 311.007812 187.5 311.007812 C 188.164062 311.007812 188.808594 310.882812 189.425781 310.636719 C 190.042969 310.386719 190.589844 310.035156 191.070312 309.574219 L 334.460938 168.691406 C 336.523438 166.699219 337.539062 164.265625 337.5 161.398438 L 337.5 69.074219 C 337.5 68.398438 337.371094 67.746094 337.113281 67.125 C 336.855469 66.5 336.484375 65.949219 336.007812 65.472656 C 335.53125 64.996094 334.980469 64.628906 334.355469 64.367188 C 333.734375 64.109375 333.082031 63.980469 332.410156 63.980469 L 269.945312 63.980469 C 267.179688 63.9375 264.824219 64.902344 262.878906 66.867188 " clip-rule="evenodd"/></clipPath></defs><g clip-path="url(#6b5f7c9e25)"><g clip-path="url(#894c4e8d67)"><path fill="#ff3131" d="M 37.5 63.980469 L 37.5 310.703125 L 337.5 310.703125 L 337.5 63.980469 Z M 37.5 63.980469 " fill-opacity="1" fill-rule="nonzero"/></g></g></svg>