<svg xmlns="http://www.w3.org/2000/svg" xmlns:xlink="http://www.w3.org/1999/xlink" width="500" zoomAndPan="magnify" viewBox="0 0 375 374.999991" height="500" preserveAspectRatio="xMidYMid meet" version="1.0"><defs><clipPath id="6063fa8107"><path d="M 0 33.101562 L 375 33.101562 L 375 342 L 0 342 Z M 0 33.101562 " clip-rule="nonzero"/></clipPath><clipPath id="d2770b842e"><path d="M 281.726562 36.710938 L 187.5 129.226562 L 93.273438 36.710938 C 90.84375 34.25 87.898438 33.046875 84.441406 33.101562 L 6.363281 33.101562 C 5.519531 33.101562 4.707031 33.261719 3.929688 33.585938 C 3.148438 33.90625 2.460938 34.367188 1.863281 34.964844 C 1.265625 35.5625 0.808594 36.25 0.484375 37.027344 C 0.160156 37.808594 0 38.621094 0 39.464844 L 0 154.871094 C -0.0859375 158.472656 1.179688 161.511719 3.800781 163.988281 L 115.785156 273.980469 L 172.683594 218.128906 L 144.472656 227.820312 L 55.851562 140.71875 L 55.851562 74.226562 L 187.5 203.597656 L 316.394531 76.886719 L 316.394531 143.472656 L 149.695312 307.226562 L 183.035156 340.089844 C 183.636719 340.664062 184.324219 341.109375 185.09375 341.417969 C 185.867188 341.726562 186.667969 341.882812 187.5 341.882812 C 188.332031 341.882812 189.132812 341.726562 189.90625 341.417969 C 190.675781 341.109375 191.363281 340.664062 191.964844 340.089844 L 371.199219 163.988281 C 373.78125 161.496094 375.046875 158.457031 375 154.871094 L 375 39.464844 C 375 38.621094 374.839844 37.808594 374.515625 37.027344 C 374.191406 36.25 373.734375 35.5625 373.136719 34.964844 C 372.539062 34.367188 371.851562 33.90625 371.070312 33.585938 C 370.292969 33.261719 369.480469 33.101562 368.636719 33.101562 L 290.558594 33.101562 C 287.101562 33.046875 284.15625 34.25 281.726562 36.710938 " clip-rule="evenodd"/></clipPath></defs><g clip-path="url(#6063fa8107)"><g clip-path="url(#d2770b842e)"><path fill="#ffffff" d="M 0 33.101562 L 0 341.882812 L 375 341.882812 L 375 33.101562 Z M 0 33.101562 " fill-opacity="1" fill-rule="nonzero"/></g></g></svg>