<svg xmlns="http://www.w3.org/2000/svg" xmlns:xlink="http://www.w3.org/1999/xlink" width="400" zoomAndPan="magnify" viewBox="0 0 300 83.999999" height="112" preserveAspectRatio="xMidYMid meet" version="1.0"><defs><g/></defs><g fill="#b377c6" fill-opacity="1"><g transform="translate(40.043847, 61.20802)"><g><path d="M 13.078125 -7.40625 L 25.65625 -7.40625 L 25.65625 0 L 3.484375 0 L 3.484375 -39.421875 L 13.078125 -39.421875 Z M 13.078125 -7.40625 "/></g></g></g><g fill="#b377c6" fill-opacity="1"><g transform="translate(66.826681, 61.20802)"><g><path d="M 12.921875 -39.421875 L 12.921875 -15.84375 C 12.921875 -13.476562 13.5 -11.660156 14.65625 -10.390625 C 15.8125 -9.117188 17.515625 -8.484375 19.765625 -8.484375 C 22.015625 -8.484375 23.738281 -9.117188 24.9375 -10.390625 C 26.132812 -11.660156 26.734375 -13.476562 26.734375 -15.84375 L 26.734375 -39.421875 L 36.328125 -39.421875 L 36.328125 -15.890625 C 36.328125 -12.367188 35.578125 -9.390625 34.078125 -6.953125 C 32.585938 -4.523438 30.578125 -2.691406 28.046875 -1.453125 C 25.523438 -0.222656 22.707031 0.390625 19.59375 0.390625 C 16.488281 0.390625 13.707031 -0.210938 11.25 -1.421875 C 8.800781 -2.640625 6.863281 -4.472656 5.4375 -6.921875 C 4.019531 -9.378906 3.3125 -12.367188 3.3125 -15.890625 L 3.3125 -39.421875 Z M 12.921875 -39.421875 "/></g></g></g><g fill="#b377c6" fill-opacity="1"><g transform="translate(106.41138, 61.20802)"><g><path d="M 48.125 -39.421875 L 48.125 0 L 38.515625 0 L 38.515625 -23.640625 L 29.703125 0 L 21.953125 0 L 13.078125 -23.703125 L 13.078125 0 L 3.484375 0 L 3.484375 -39.421875 L 14.828125 -39.421875 L 25.890625 -12.125 L 36.84375 -39.421875 Z M 48.125 -39.421875 "/></g></g></g><g fill="#b377c6" fill-opacity="1"><g transform="translate(157.955709, 61.20802)"><g><path d="M 13.078125 -39.421875 L 13.078125 0 L 3.484375 0 L 3.484375 -39.421875 Z M 13.078125 -39.421875 "/></g></g></g><g fill="#b377c6" fill-opacity="1"><g transform="translate(174.51952, 61.20802)"><g><path d="M 38.75 0 L 29.140625 0 L 13.078125 -24.3125 L 13.078125 0 L 3.484375 0 L 3.484375 -39.421875 L 13.078125 -39.421875 L 29.140625 -15 L 29.140625 -39.421875 L 38.75 -39.421875 Z M 38.75 0 "/></g></g></g><g fill="#b377c6" fill-opacity="1"><g transform="translate(216.743198, 61.20802)"><g><path d="M 28.015625 -6.96875 L 13.3125 -6.96875 L 10.953125 0 L 0.90625 0 L 15.15625 -39.421875 L 26.28125 -39.421875 L 40.546875 0 L 30.375 0 Z M 25.546875 -14.375 L 20.671875 -28.8125 L 15.84375 -14.375 Z M 25.546875 -14.375 "/></g></g></g></svg>